<?xml version="1.0" encoding="UTF-8"?>
<svg id="Layer_1" data-name="Layer 1" xmlns="http://www.w3.org/2000/svg" viewBox="0 0 2816 1536">
  <defs>
    <mask id="holes">
      <rect width="100%" height="100%" fill="white"/>
      <path fill="black" d="M718,820v-488c3.67-.93,7.05-1.8,10.9-2.1,138.42-10.89,280.53,3.94,322.53,157.67,25.39,92.95,11.17,226.46-70.51,288.35-78.17,59.23-170.93,41.64-262.92,44.08Z"/>
      <path fill="black" d="M1649.52,1186.52c131-17.79,135.11,191.25,18.92,194.94s-122.24-180.9-18.92-194.94Z"/>
      <polygon fill="black" points="642 1316 558 1316 601.98 1206 642 1316"/>
    </mask>
    <style>
      .brand-mark { fill: currentColor; animation: float 6s ease-in-out infinite; }
      @keyframes float { 0%, 100% { transform: translateY(0); } 50% { transform: translateY(-10px); } }
    </style>
  </defs>
  <g mask="url(#holes)" class="brand-mark">
  <path d="M2309.33,181.33c11.71-11.73,5.99-33.84-10.8-36.85-15.29-2.75-62.85-1.94-79.28-.23-32.96,3.44-59.36,24.99-63,59-2.09,19.57-4.03,54.67-2.33,73.83,3.05,34.47,41.22,33.28,44.16,2,1.91-20.33-5.96-72.99,10.01-85.99,17.92-14.59,84.52,5.01,101.25-11.75ZM2640.68,295.32c11.84,12.54,34.54,6.42,37.2-10.43,3.3-20.87.84-83.12-7.5-102.27-6.96-15.99-22.75-29.45-39.28-34.72-17.56-5.6-74.87-6.24-94.15-3.94-26.89,3.2-26.46,40.79,4.04,44.05,19.11,2.05,67.15-4.51,80.84,3.16,26.2,14.68.46,84.68,18.85,104.15ZM381.29,150.71c-3.59-3.59-7.32-4.38-12.17-4.84-58.15-5.52-125.07,4.43-184.17.09-7.82.35-14.12,6.33-16.53,13.47l-.5,827.66c1.2,13.01,4.47,17.53,17.56,20.44,56.93-4.13,126.05,7.15,181.57.53,9.68-1.16,15.94-6.12,18.49-15.51l-.07-835.05c-1.1-2.33-2.35-4.96-4.17-6.78ZM513.46,146.46c-11.8,3.02-14.56,11.27-15.54,22.46l.97,825.19c4.31,8.7,12.05,14.13,22.03,13.97,209.46-10.36,453.47,42.79,628.02-102.13,144.25-119.77,172.46-347.91,103.99-515.88-63.42-155.57-216.61-235.92-379.85-244.15-117.94-5.94-241.15,4.24-359.62.54ZM1582,464V163c0-7.34-8.89-17.59-16.95-17.05-58.12,5.05-127.31-6.59-184.09,0-7.4.86-12.33,4.14-14.53,11.47l-.52,831.67c-.11,15.14,12.42,18.06,25.01,18.99,54.87,4.05,114.68-3.2,170.08-.09,16.91-1.94,19.89-11.56,21.07-26.93,5.72-74.01-4.46-155.25-.03-230.03,1.04-5.46,60.08-79.68,67.99-88.01,1.45-1.53,2.42-3.6,4.95-3.06l214.5,342.07,15.47,6c69.57-4.88,147.57,6.32,216.13.03,18.43-1.69,22.91-10.78,15.27-27.43l-313.7-483.66c22.4-27.26,45.27-54.3,68.32-81.02,68.95-79.93,144.91-159.43,210.98-241.02,8.13-10.04,21.11-23.91,1.16-29.05-71.03,4.94-150.13-6.21-220.19.02-21.03,1.87-31.95,18.57-44.87,33.13-79.34,89.47-149.38,187.98-228.11,277.89-2.21,2.53-4.82,5.74-7.94,7.06ZM2584,384v-97c0-8.63-5.42-22.12-10.95-29.05-8.44-10.57-18.59-14.88-31.98-16.02-80.29-6.89-170.52,5.11-251.85.29-15.38,2.73-26.22,8.33-33.59,22.41-1.06,2.02-5.63,11.45-5.63,12.37v107h-123c-.92,0-6.58,3.05-7.99,4.01-16.49,11.21-9.78,35.97,9.94,38.05l580.96-1.15c11.19-5.37,17.4-18.93,10.09-29.92-1.49-2.24-11.15-10.99-13-10.99h-123ZM2250,454v77c0,.85,5.29,14.03,6.29,15.71,5.51,9.32,20.03,19.64,30.88,21.12,81.65-5.28,173.44,7.62,253.91.26,14.42-1.32,27.89-7.96,35.33-20.67,1.69-2.89,7.59-18.18,7.59-20.41v-70l-3-3h-331ZM2173.53,506.39c-12.78,1.84-18.58,14.87-19.61,26.53-1.99,22.58.45,76.59,9.71,96.45,15.25,32.7,49.21,35.24,81.29,36.71,13.75.63,42.49,1.7,54.71-1.45,22.56-5.82,21.9-40.04-6.55-42.71-20.42-1.91-74.8,6.19-87.96-8.04-14.11-15.26-2.84-69.45-7.53-90.47-2.29-10.24-13.57-18.54-24.05-17.03ZM2651.45,506.39c-34.09,7.55-5.51,86.73-23.38,106.68-13.84,15.44-67.93,6.88-89.16,8.84-28.06,2.59-29.84,41.18,4.01,44.18,47.33,4.19,116.95,5.86,131.67-50.49,4.44-16.98,6.18-73.25,3.3-90.49-1.97-11.79-14.58-21.35-26.45-18.72ZM2334.89,1090.83c-25.73,26.5-43.92,54.1-52.34,90.72-3.74,16.27-10.64,40.76,5.55,51.35,7.9,5.17,76.53,17.95,89.16,18.84,33.37,2.35,28.28-16.91,37.22-40.26,25.96-67.75,94.48-87.27,144.47-131.53,111.4-98.63,87.45-271.79-54.45-325.44-121.05-45.77-279.31-12.73-329.46,117.53-6.06,15.74-8.56,24.17,6.02,35.91,10.46,8.42,74.39,32.49,88.84,35.15,29.73,5.48,30.51-16.35,43.28-34.92,56.16-81.71,192.42-37.71,147.8,63.8-20.56,46.79-90.14,81.85-126.08,118.86ZM281.6,1118.6c-209.9,18.58-198.9,351.47,45.14,329.14,26.37-2.41,56.34-16.61,76.31-33.69,3.87-3.31,23.76-22.26,22.03-26.09l-48.08-45.93c-46.68,67.38-154.12,43.22-164.49-39.55-8.34-66.6,28.97-122.94,100.45-116.46,27.99,2.54,45.73,18.25,65.76,35.82l47.24-46.86c-35.27-43.56-89.14-61.29-144.36-56.4ZM1645.59,1118.59c-102.27,10.01-162,102.91-142.69,201.52,33.04,168.71,285.03,173.35,321.79,3.58,25.4-117.32-58.1-216.94-179.1-205.1ZM772,1444l-132.98-318.02-74.1-2.12-136.92,320.15h80l23.77-64.82,134.26-.21,25.97,65.03h80ZM861,1124h-63v320h74v-184l141,184h63v-320h-74v182l-4.59-2.54-136.41-179.46ZM1281,1124h-83l118.71,206.47c-2.89,37.73,5.53,76.11-.71,113.53h78v-117l116-203h-78l-75.98,132-75.02-132ZM1944,1124h-76v201c0,61.83,52.58,116.66,113.24,122.76,94.12,9.46,156.94-34.15,162.84-130.67,3.84-62.92-3.04-129.77-.08-193.08h-76v203c0,15.43-15.59,39.2-29.35,46.65-42.5,22.99-94.65-5.11-94.65-54.65v-195ZM2303.55,1302.55c-97.46,11.11-100.97,159.47-5.65,174.55,137.59,21.77,141.41-190.03,5.65-174.55Z"/>"/>
  <path d="M513.46,146.46c118.47,3.69,241.68-6.49,359.62-.54,163.24,8.23,316.43,88.58,379.85,244.15,68.47,167.97,40.26,396.11-103.99,515.88-174.55,144.92-418.56,91.77-628.02,102.13-9.98.17-17.72-5.27-22.03-13.97l-.97-825.19c.98-11.19,3.74-19.44,15.54-22.46ZM718,820c91.99-2.45,184.74,15.15,262.92-44.08,81.68-61.89,95.9-195.4,70.51-288.35-42-153.73-184.11-168.56-322.53-157.67-3.85.3-7.24,1.17-10.9,2.1v488Z"/>
  <path d="M1582,464c3.12-1.32,5.73-4.53,7.94-7.06,78.73-89.91,148.77-188.42,228.11-277.89,12.92-14.56,23.84-31.26,44.87-33.13,70.06-6.24,149.16,4.91,220.19-.02,19.95,5.14,6.97,19.01-1.16,29.05-66.07,81.59-142.02,161.1-210.98,241.02-23.05,26.72-45.92,53.76-68.32,81.02l313.7,483.66c7.64,16.65,3.15,25.74-15.27,27.43-68.55,6.29-146.56-4.9-216.13-.03l-15.47-6-214.5-342.07c-2.53-.54-3.5,1.53-4.95,3.06-7.91,8.33-66.94,82.55-67.99,88.01-4.44,74.78,5.75,156.02.03,230.03-1.19,15.37-4.17,24.99-21.07,26.93-55.4-3.11-115.22,4.14-170.08.09-12.59-.93-25.12-3.85-25.01-18.99l.52-831.67c2.2-7.33,7.13-10.61,14.53-11.47,56.78-6.59,125.97,5.05,184.09,0,8.06-.55,16.95,9.7,16.95,17.05v301Z"/>
  <path d="M381.29,150.71c1.82,1.82,3.07,4.45,4.17,6.78l.07,835.05c-2.55,9.39-8.81,14.35-18.49,15.51-55.51,6.62-124.64-4.65-181.57-.53-13.09-2.92-16.36-7.44-17.56-20.44l.5-827.66c2.41-7.14,8.72-13.12,16.53-13.47,59.1,4.35,126.02-5.61,184.17-.09,4.85.46,8.58,1.25,12.17,4.84Z"/>
  <path d="M2334.89,1090.83c35.94-37.01,105.52-72.07,126.08-118.86,44.62-101.51-91.64-145.51-147.8-63.8-12.76,18.57-13.55,40.39-43.28,34.92-14.44-2.66-78.38-26.72-88.84-35.15-14.58-11.74-12.08-20.17-6.02-35.91,50.15-130.26,208.41-163.3,329.46-117.53,141.9,53.65,165.85,226.81,54.45,325.44-49.99,44.26-118.51,63.78-144.47,131.53-8.94,23.35-3.85,42.61-37.22,40.26-12.63-.89-81.26-13.67-89.16-18.84-16.19-10.59-9.29-35.08-5.55-51.35,8.43-36.62,26.61-64.22,52.34-90.72Z"/>
  <path d="M2584,384h123c1.85,0,11.51,8.75,13,10.99,7.3,10.99,1.1,24.55-10.09,29.92l-580.96,1.15c-19.71-2.08-26.43-26.84-9.94-38.05,1.41-.96,7.08-4.01,7.99-4.01h123v-107c0-.92,4.57-10.35,5.63-12.37,7.38-14.07,18.22-19.68,33.59-22.41,81.33,4.82,171.56-7.18,251.85-.29,13.39,1.15,23.54,5.45,31.98,16.02,5.53,6.93,10.95,20.41,10.95,29.05v97Z"/>
  <polygon points="861 1124 997.41 1303.46 1002 1306 1002 1124 1076 1124 1076 1444 1013 1444 872 1260 872 1444 798 1444 798 1124 861 1124"/>
  <path d="M1645.59,1118.59c121-11.84,204.5,87.78,179.1,205.1-36.75,169.77-288.74,165.13-321.79-3.58-19.31-98.61,40.42-191.51,142.69-201.52ZM1649.52,1186.52c-103.32,14.03-96.23,198.59,18.92,194.94s112.08-212.73-18.92-194.94Z"/>
  <path d="M1944,1124v195c0,49.54,52.15,77.64,94.65,54.65,13.76-7.45,29.35-31.21,29.35-46.65v-203h76c-2.96,63.32,3.93,130.16.08,193.08-5.9,96.52-68.72,140.14-162.84,130.67-60.67-6.1-113.24-60.93-113.24-122.76v-201h76Z"/>
  <path d="M772,1444h-80l-25.97-65.03-134.26.21-23.77,64.82h-80l136.92-320.15,74.1,2.12,132.98,318.02ZM642,1316l-40.02-110-43.98,110h84Z"/>
  <path d="M281.6,1118.6c55.23-4.89,109.1,12.84,144.36,56.4l-47.24,46.86c-20.02-17.58-37.76-33.28-65.76-35.82-71.48-6.48-108.8,49.85-100.45,116.46,10.37,82.77,117.81,106.93,164.49,39.55l48.08,45.93c1.73,3.83-18.16,22.77-22.03,26.09-19.97,17.08-49.94,31.28-76.31,33.69-244.05,22.33-255.05-310.56-45.14-329.14Z"/>
  <path d="M1281,1124l75.02,132,75.98-132h78l-116,203v117h-78c6.24-37.42-2.18-75.8.71-113.53l-118.71-206.47h83Z"/>
  <path d="M2250,454h331l3,3v70c0,2.23-5.89,17.53-7.59,20.41-7.44,12.71-20.91,19.35-35.33,20.67-80.47,7.36-172.26-5.54-253.91-.26-10.85-1.48-25.37-11.8-30.88-21.12-1-1.69-6.29-14.86-6.29-15.71v-77Z"/>
  <path d="M2303.55,1302.55c135.75-15.48,131.94,196.32-5.65,174.55-95.31-15.08-91.81-163.43,5.65-174.55Z"/>
  <path d="M2651.45,506.39c11.87-2.63,24.48,6.93,26.45,18.72,2.88,17.24,1.13,73.51-3.3,90.49-14.73,56.35-84.35,54.68-131.67,50.49-33.85-3-32.07-41.59-4.01-44.18,21.23-1.96,75.32,6.6,89.16-8.84,17.87-19.95-10.71-99.12,23.38-106.68Z"/>
  <path d="M2309.33,181.33c-16.72,16.76-83.32-2.84-101.25,11.75-15.97,13-8.1,65.66-10.01,85.99-2.93,31.29-41.11,32.47-44.16-2-1.69-19.16.24-54.26,2.33-73.83,3.64-34.01,30.03-55.56,63-59,16.43-1.72,63.99-2.52,79.28.23,16.79,3.02,22.51,25.12,10.8,36.85Z"/>
  <path d="M2640.68,295.32c-18.39-19.47,7.35-89.47-18.85-104.15-13.69-7.67-61.73-1.12-80.84-3.16-30.5-3.27-30.93-40.85-4.04-44.05,19.28-2.3,76.59-1.66,94.15,3.94,16.53,5.27,32.32,18.73,39.28,34.72,8.34,19.15,10.8,81.4,7.5,102.27-2.67,16.85-25.36,22.97-37.2,10.43Z"/>
  <path d="M2173.53,506.39c10.48-1.51,21.76,6.79,24.05,17.03,4.7,21.01-6.57,75.21,7.53,90.47,13.16,14.23,67.54,6.13,87.96,8.04,28.46,2.66,29.11,36.89,6.55,42.71-12.22,3.15-40.96,2.08-54.71,1.45-32.08-1.47-66.03-4.01-81.29-36.71-9.26-19.86-11.71-73.87-9.71-96.45,1.03-11.66,6.83-24.69,19.61-26.53Z"/>
  </g>
</svg>